<svg xmlns="http://www.w3.org/2000/svg" width="800" height="1120" aria-label="Blue card template preview" role="img" viewBox="0 0 800 1120"><rect width="800" height="1120" fill="#f3f4f6"/><rect width="764" height="1084" x="18" y="18" fill="#fff" stroke="#d6dbe3" rx="6"/><rect width="280" height="28" x="260" y="48" fill="#111827" opacity=".92" rx="6"/><circle cx="220" cy="98" r="7" fill="#3b82f6"/><rect width="120" height="10" x="234" y="92" fill="#64748b" rx="5"/><circle cx="378" cy="98" r="7" fill="#3b82f6"/><rect width="180" height="10" x="392" y="92" fill="#64748b" rx="5"/><rect width="82" height="104" x="676" y="48" fill="#95b5de" rx="8"/><rect width="66" height="88" x="684" y="56" fill="#5f86bb" rx="6"/><rect width="16" height="16" x="710" y="78" fill="#c8d8ee" rx="8"/><rect width="38" height="36" x="699" y="100" fill="#dce8f7" rx="8"/><rect width="110" height="30" x="42" y="178" fill="#3b82f6" rx="4"/><rect width="82" height="16" x="56" y="185" fill="rgba(255,255,255,0.95)" rx="4"/><rect width="200" height="22" x="42" y="228" fill="#111827" rx="6"/><rect width="140" height="12" x="252" y="234" fill="#94a3b8" rx="6"/><rect width="118" height="12" x="640" y="234" fill="#94a3b8" rx="6"/><rect width="300" height="12" x="42" y="266" fill="#94a3b8" rx="6"/><rect width="110" height="30" x="42" y="308" fill="#3b82f6" rx="4"/><rect width="82" height="16" x="56" y="315" fill="rgba(255,255,255,0.95)" rx="4"/><circle cx="48" cy="374" r="4" fill="#111827"/><rect width="692" height="12" x="62" y="368" fill="#111827" opacity=".85" rx="6"/><circle cx="48" cy="404" r="4" fill="#111827"/><rect width="680" height="12" x="62" y="398" fill="#111827" opacity=".85" rx="6"/><circle cx="48" cy="434" r="4" fill="#111827"/><rect width="688" height="12" x="62" y="428" fill="#111827" opacity=".85" rx="6"/><circle cx="48" cy="464" r="4" fill="#111827"/><rect width="670" height="12" x="62" y="458" fill="#111827" opacity=".85" rx="6"/><circle cx="48" cy="494" r="4" fill="#111827"/><rect width="694" height="12" x="62" y="488" fill="#111827" opacity=".85" rx="6"/><circle cx="48" cy="524" r="4" fill="#111827"/><rect width="672" height="12" x="62" y="518" fill="#111827" opacity=".85" rx="6"/><rect width="110" height="30" x="42" y="560" fill="#3b82f6" rx="4"/><rect width="82" height="16" x="56" y="567" fill="rgba(255,255,255,0.95)" rx="4"/><rect width="200" height="22" x="42" y="610" fill="#111827" rx="6"/><rect width="118" height="12" x="640" y="616" fill="#94a3b8" rx="6"/><rect width="280" height="12" x="42" y="644" fill="#94a3b8" rx="6"/><circle cx="48" cy="682" r="4" fill="#111827"/><rect width="692" height="12" x="62" y="676" fill="#111827" opacity=".85" rx="6"/><circle cx="48" cy="712" r="4" fill="#111827"/><rect width="680" height="12" x="62" y="706" fill="#111827" opacity=".85" rx="6"/><circle cx="48" cy="742" r="4" fill="#111827"/><rect width="688" height="12" x="62" y="736" fill="#111827" opacity=".85" rx="6"/><circle cx="48" cy="772" r="4" fill="#111827"/><rect width="670" height="12" x="62" y="766" fill="#111827" opacity=".85" rx="6"/><rect width="110" height="30" x="42" y="808" fill="#3b82f6" rx="4"/><rect width="82" height="16" x="56" y="815" fill="rgba(255,255,255,0.95)" rx="4"/><rect width="200" height="22" x="42" y="858" fill="#111827" rx="6"/><rect width="118" height="12" x="640" y="864" fill="#94a3b8" rx="6"/><rect width="700" height="12" x="42" y="896" fill="#111827" opacity=".85" rx="6"/><rect width="690" height="12" x="42" y="926" fill="#111827" opacity=".85" rx="6"/></svg>