<svg xmlns="http://www.w3.org/2000/svg" width="800" height="1120" aria-label="Blue sidebar career template preview" role="img" viewBox="0 0 800 1120"><rect width="800" height="1120" fill="#fff"/><rect width="752" height="1072" x="24" y="24" fill="#f5f9ff" stroke="#c9d7ef" rx="20"/><rect width="212" height="1072" x="24" y="24" fill="#2f69d1" rx="20"/><rect width="132" height="168" x="64" y="82" fill="#b9d0fb" rx="10"/><rect width="148" height="28" x="56" y="282" fill="#ecf3ff" rx="8"/><rect width="120" height="20" x="56" y="332" fill="#ecf3ff" rx="6"/><rect width="120" height="20" x="56" y="364" fill="#ecf3ff" rx="6"/><rect width="120" height="20" x="56" y="426" fill="#ecf3ff" rx="6"/><rect width="130" height="20" x="56" y="458" fill="#ecf3ff" rx="6"/><rect width="220" height="28" x="266" y="86" fill="#2f69d1" rx="10"/><rect width="478" height="2" x="266" y="134" fill="#d3e1fb" rx="1"/><rect width="478" height="12" x="266" y="176" fill="#b6c9ea" rx="6"/><rect width="478" height="12" x="266" y="208" fill="#b6c9ea" rx="6"/><rect width="220" height="28" x="266" y="278" fill="#2f69d1" rx="10"/><rect width="478" height="12" x="266" y="326" fill="#b6c9ea" rx="6"/><rect width="478" height="12" x="266" y="358" fill="#b6c9ea" rx="6"/><text x="504" y="1038" fill="#46659d" font-family="Segoe UI, Arial, sans-serif" font-size="32" text-anchor="middle">BLUE SIDEBAR</text></svg>