<svg xmlns="http://www.w3.org/2000/svg" width="800" height="1120" aria-label="Blue linear template preview" role="img" viewBox="0 0 800 1120"><rect width="800" height="1120" fill="#fff"/><rect width="752" height="1072" x="24" y="24" fill="#f8fbff" stroke="#c7d6f3" rx="20"/><rect width="688" height="170" x="56" y="60" fill="#dce8ff" rx="14"/><rect width="120" height="130" x="84" y="94" fill="#b8cef5" rx="8"/><rect width="300" height="28" x="226" y="98" fill="#5c86de" rx="8"/><rect width="460" height="14" x="226" y="136" fill="#8fa9db" rx="7"/><rect width="510" height="14" x="226" y="160" fill="#8fa9db" rx="7"/><rect width="260" height="28" x="56" y="274" fill="#5c86de" rx="10"/><rect width="688" height="10" x="56" y="322" fill="#bfd1ee" rx="5"/><rect width="688" height="10" x="56" y="356" fill="#bfd1ee" rx="5"/><rect width="260" height="28" x="56" y="418" fill="#5c86de" rx="10"/><rect width="688" height="10" x="56" y="466" fill="#bfd1ee" rx="5"/><rect width="688" height="10" x="56" y="500" fill="#bfd1ee" rx="5"/><rect width="688" height="10" x="56" y="534" fill="#bfd1ee" rx="5"/><text x="400" y="1038" fill="#4a67a9" font-family="Segoe UI, Arial, sans-serif" font-size="36" text-anchor="middle">BLUE LINEAR</text></svg>