<svg xmlns="http://www.w3.org/2000/svg" width="800" height="1120" viewBox="0 0 800 1120" role="img" aria-label="Blue card template preview">
  <rect width="800" height="1120" fill="#f3f4f6" />
  <rect x="18" y="18" width="764" height="1084" rx="6" fill="#ffffff" stroke="#d6dbe3" />

  <!-- Name centered -->
  <rect x="260" y="48" width="280" height="28" rx="6" fill="#111827" opacity="0.92" />

  <!-- Contact icons line -->
  <circle cx="220" cy="98" r="7" fill="#3b82f6" />
  <rect x="234" y="92" width="120" height="10" rx="5" fill="#64748b" />
  <circle cx="378" cy="98" r="7" fill="#3b82f6" />
  <rect x="392" y="92" width="180" height="10" rx="5" fill="#64748b" />

  <!-- Avatar -->
  <rect x="676" y="48" width="82" height="104" rx="8" fill="#95b5de" />
  <rect x="684" y="56" width="66" height="88" rx="6" fill="#5f86bb" />
  <rect x="710" y="78" width="16" height="16" rx="8" fill="#c8d8ee" />
  <rect x="699" y="100" width="38" height="36" rx="8" fill="#dce8f7" />

  <!-- Section 1: Blue pill badge -->
  <rect x="42" y="178" width="110" height="30" rx="4" fill="#3b82f6" />
  <rect x="56" y="185" width="82" height="16" rx="4" fill="rgba(255,255,255,0.95)" />

  <!-- Education entry -->
  <rect x="42" y="228" width="200" height="22" rx="6" fill="#111827" />
  <rect x="252" y="234" width="140" height="12" rx="6" fill="#94a3b8" />
  <rect x="640" y="234" width="118" height="12" rx="6" fill="#94a3b8" />
  <rect x="42" y="266" width="300" height="12" rx="6" fill="#94a3b8" />

  <!-- Section 2: Blue pill badge -->
  <rect x="42" y="308" width="110" height="30" rx="4" fill="#3b82f6" />
  <rect x="56" y="315" width="82" height="16" rx="4" fill="rgba(255,255,255,0.95)" />

  <!-- Skills bullets -->
  <circle cx="48" cy="374" r="4" fill="#111827" />
  <rect x="62" y="368" width="692" height="12" rx="6" fill="#111827" opacity="0.85" />
  <circle cx="48" cy="404" r="4" fill="#111827" />
  <rect x="62" y="398" width="680" height="12" rx="6" fill="#111827" opacity="0.85" />
  <circle cx="48" cy="434" r="4" fill="#111827" />
  <rect x="62" y="428" width="688" height="12" rx="6" fill="#111827" opacity="0.85" />
  <circle cx="48" cy="464" r="4" fill="#111827" />
  <rect x="62" y="458" width="670" height="12" rx="6" fill="#111827" opacity="0.85" />
  <circle cx="48" cy="494" r="4" fill="#111827" />
  <rect x="62" y="488" width="694" height="12" rx="6" fill="#111827" opacity="0.85" />
  <circle cx="48" cy="524" r="4" fill="#111827" />
  <rect x="62" y="518" width="672" height="12" rx="6" fill="#111827" opacity="0.85" />

  <!-- Section 3: Blue pill badge -->
  <rect x="42" y="560" width="110" height="30" rx="4" fill="#3b82f6" />
  <rect x="56" y="567" width="82" height="16" rx="4" fill="rgba(255,255,255,0.95)" />

  <!-- Work entry -->
  <rect x="42" y="610" width="200" height="22" rx="6" fill="#111827" />
  <rect x="640" y="616" width="118" height="12" rx="6" fill="#94a3b8" />
  <rect x="42" y="644" width="280" height="12" rx="6" fill="#94a3b8" />
  <circle cx="48" cy="682" r="4" fill="#111827" />
  <rect x="62" y="676" width="692" height="12" rx="6" fill="#111827" opacity="0.85" />
  <circle cx="48" cy="712" r="4" fill="#111827" />
  <rect x="62" y="706" width="680" height="12" rx="6" fill="#111827" opacity="0.85" />
  <circle cx="48" cy="742" r="4" fill="#111827" />
  <rect x="62" y="736" width="688" height="12" rx="6" fill="#111827" opacity="0.85" />
  <circle cx="48" cy="772" r="4" fill="#111827" />
  <rect x="62" y="766" width="670" height="12" rx="6" fill="#111827" opacity="0.85" />

  <!-- Section 4: Blue pill badge -->
  <rect x="42" y="808" width="110" height="30" rx="4" fill="#3b82f6" />
  <rect x="56" y="815" width="82" height="16" rx="4" fill="rgba(255,255,255,0.95)" />

  <!-- Project entry -->
  <rect x="42" y="858" width="200" height="22" rx="6" fill="#111827" />
  <rect x="640" y="864" width="118" height="12" rx="6" fill="#94a3b8" />
  <rect x="42" y="896" width="700" height="12" rx="6" fill="#111827" opacity="0.85" />
  <rect x="42" y="926" width="690" height="12" rx="6" fill="#111827" opacity="0.85" />
</svg>
