<svg xmlns="http://www.w3.org/2000/svg" width="800" height="1120" aria-label="Default template preview" role="img" viewBox="0 0 800 1120"><rect width="800" height="1120" fill="#f3f4f6"/><rect width="764" height="1084" x="18" y="18" fill="#fff" stroke="#d6dbe3" rx="6"/><rect width="230" height="28" x="42" y="48" fill="#111827" opacity=".92" rx="6"/><rect width="520" height="10" x="42" y="92" fill="#64748b" rx="5"/><rect width="620" height="10" x="42" y="116" fill="#64748b" rx="5"/><rect width="560" height="10" x="42" y="140" fill="#2563eb" rx="5"/><rect width="82" height="104" x="676" y="48" fill="#95b5de" rx="8"/><rect width="66" height="88" x="684" y="56" fill="#5f86bb" rx="6"/><rect width="16" height="16" x="710" y="78" fill="#c8d8ee" rx="8"/><rect width="38" height="36" x="699" y="100" fill="#dce8f7" rx="8"/><rect width="716" height="52" x="42" y="176" fill="#e9eef9" rx="2"/><rect width="4" height="52" x="42" y="176" fill="#4f79dd"/><rect width="110" height="20" x="58" y="192" fill="#3f6fd8" rx="6"/><rect width="210" height="24" x="42" y="252" fill="#111827" rx="6"/><rect width="160" height="14" x="262" y="258" fill="#94a3b8" rx="7"/><rect width="118" height="14" x="640" y="256" fill="#94a3b8" rx="7"/><rect width="300" height="14" x="42" y="292" fill="#94a3b8" rx="7"/><rect width="340" height="14" x="42" y="324" fill="#111827" opacity=".9" rx="7"/><rect width="716" height="52" x="42" y="368" fill="#e9eef9" rx="2"/><rect width="4" height="52" x="42" y="368" fill="#4f79dd"/><rect width="110" height="20" x="58" y="384" fill="#3f6fd8" rx="6"/><circle cx="48" cy="452" r="4" fill="#111827"/><rect width="690" height="14" x="62" y="446" fill="#111827" opacity=".9" rx="7"/><circle cx="48" cy="486" r="4" fill="#111827"/><rect width="680" height="14" x="62" y="480" fill="#111827" opacity=".9" rx="7"/><circle cx="48" cy="520" r="4" fill="#111827"/><rect width="688" height="14" x="62" y="514" fill="#111827" opacity=".9" rx="7"/><circle cx="48" cy="554" r="4" fill="#111827"/><rect width="670" height="14" x="62" y="548" fill="#111827" opacity=".9" rx="7"/><circle cx="48" cy="588" r="4" fill="#111827"/><rect width="694" height="14" x="62" y="582" fill="#111827" opacity=".9" rx="7"/><circle cx="48" cy="622" r="4" fill="#111827"/><rect width="672" height="14" x="62" y="616" fill="#111827" opacity=".9" rx="7"/><circle cx="48" cy="656" r="4" fill="#111827"/><rect width="686" height="14" x="62" y="650" fill="#111827" opacity=".9" rx="7"/><circle cx="48" cy="690" r="4" fill="#111827"/><rect width="676" height="14" x="62" y="684" fill="#111827" opacity=".9" rx="7"/><circle cx="48" cy="724" r="4" fill="#111827"/><rect width="692" height="14" x="62" y="718" fill="#111827" opacity=".9" rx="7"/><circle cx="48" cy="758" r="4" fill="#111827"/><rect width="682" height="14" x="62" y="752" fill="#111827" opacity=".9" rx="7"/><rect width="716" height="52" x="42" y="804" fill="#e9eef9" rx="2"/><rect width="4" height="52" x="42" y="804" fill="#4f79dd"/><rect width="110" height="20" x="58" y="820" fill="#3f6fd8" rx="6"/><rect width="230" height="24" x="42" y="880" fill="#111827" rx="6"/><rect width="210" height="14" x="280" y="886" fill="#94a3b8" rx="7"/><rect width="118" height="14" x="640" y="886" fill="#94a3b8" rx="7"/><rect width="700" height="14" x="42" y="920" fill="#111827" opacity=".9" rx="7"/></svg>