<svg xmlns="http://www.w3.org/2000/svg" width="800" height="1120" aria-label="Green icon linear template preview" role="img" viewBox="0 0 800 1120"><rect width="800" height="1120" fill="#edf2f5"/><rect width="800" height="18" fill="#148f89"/><circle cx="770" cy="170" r="280" fill="none" stroke="#d4dfe4" stroke-width="2"/><circle cx="770" cy="170" r="260" fill="none" stroke="#d4dfe4" stroke-width="2"/><circle cx="770" cy="170" r="240" fill="none" stroke="#d4dfe4" stroke-width="2"/><circle cx="770" cy="170" r="220" fill="none" stroke="#d4dfe4" stroke-width="2"/><circle cx="770" cy="170" r="200" fill="none" stroke="#d4dfe4" stroke-width="2"/><circle cx="770" cy="170" r="180" fill="none" stroke="#d4dfe4" stroke-width="2"/><circle cx="770" cy="170" r="160" fill="none" stroke="#d4dfe4" stroke-width="2"/><circle cx="770" cy="170" r="140" fill="none" stroke="#d4dfe4" stroke-width="2"/><rect width="260" height="34" x="36" y="56" fill="#1f2933" opacity=".92" rx="8"/><rect width="330" height="12" x="36" y="106" fill="#425466" rx="6"/><rect width="250" height="12" x="380" y="106" fill="#425466" rx="6"/><rect width="290" height="12" x="36" y="128" fill="#425466" rx="6"/><rect width="94" height="122" x="688" y="40" fill="#f7fbfd" stroke="#cad8de" rx="4"/><rect width="78" height="106" x="696" y="48" fill="#a7c7d4" rx="3"/><circle cx="735" cy="83" r="15" fill="#dce8ed"/><rect width="44" height="42" x="713" y="103" fill="#eaf2f6" rx="12"/><circle cx="44" cy="194" r="10" fill="#198e89"/><rect width="170" height="16" x="56" y="192" fill="#198e89" rx="8"/><line x1="236" x2="764" y1="200" y2="200" stroke="#c2d4dc" stroke-width="2"/><rect width="728" height="66" x="36" y="218" fill="#f8fafc" stroke="#d7e1e7" rx="14"/><rect width="684" height="10" x="54" y="242" fill="#4b5660" rx="5"/><circle cx="44" cy="314" r="10" fill="#198e89"/><rect width="170" height="16" x="56" y="312" fill="#198e89" rx="8"/><line x1="236" x2="764" y1="320" y2="320" stroke="#c2d4dc" stroke-width="2"/><rect width="728" height="248" x="36" y="338" fill="#f8fafc" stroke="#d7e1e7" rx="14"/><rect width="190" height="14" x="54" y="358" fill="#1f2933" rx="7"/><rect width="146" height="12" x="600" y="358" fill="#4b5660" rx="6"/><rect width="230" height="12" x="54" y="378" fill="#4b5660" rx="6"/><circle cx="60" cy="402" r="4" fill="#1f2933"/><rect width="666" height="10" x="72" y="396" fill="#1f2933" rx="5"/><circle cx="60" cy="420" r="4" fill="#1f2933"/><rect width="654" height="10" x="72" y="414" fill="#1f2933" rx="5"/><circle cx="60" cy="438" r="4" fill="#1f2933"/><rect width="648" height="10" x="72" y="432" fill="#1f2933" rx="5"/><rect width="170" height="14" x="54" y="472" fill="#1f2933" rx="7"/><rect width="134" height="12" x="612" y="472" fill="#4b5660" rx="6"/><rect width="180" height="12" x="54" y="492" fill="#4b5660" rx="6"/><circle cx="60" cy="516" r="4" fill="#1f2933"/><rect width="670" height="10" x="72" y="510" fill="#1f2933" rx="5"/><circle cx="60" cy="534" r="4" fill="#1f2933"/><rect width="660" height="10" x="72" y="528" fill="#1f2933" rx="5"/><circle cx="60" cy="552" r="4" fill="#1f2933"/><rect width="642" height="10" x="72" y="546" fill="#1f2933" rx="5"/><circle cx="44" cy="620" r="10" fill="#198e89"/><rect width="170" height="16" x="56" y="618" fill="#198e89" rx="8"/><line x1="236" x2="764" y1="626" y2="626" stroke="#c2d4dc" stroke-width="2"/><rect width="728" height="248" x="36" y="644" fill="#f8fafc" stroke="#d7e1e7" rx="14"/><rect width="210" height="14" x="54" y="664" fill="#1f2933" rx="7"/><rect width="142" height="12" x="604" y="664" fill="#4b5660" rx="6"/><rect width="152" height="12" x="54" y="684" fill="#4b5660" rx="6"/><circle cx="60" cy="708" r="4" fill="#1f2933"/><rect width="670" height="10" x="72" y="702" fill="#1f2933" rx="5"/><circle cx="60" cy="726" r="4" fill="#1f2933"/><rect width="660" height="10" x="72" y="720" fill="#1f2933" rx="5"/><circle cx="60" cy="744" r="4" fill="#1f2933"/><rect width="646" height="10" x="72" y="738" fill="#1f2933" rx="5"/><rect width="210" height="14" x="54" y="786" fill="#1f2933" rx="7"/><rect width="130" height="12" x="616" y="786" fill="#4b5660" rx="6"/><rect width="144" height="12" x="54" y="806" fill="#4b5660" rx="6"/><circle cx="60" cy="830" r="4" fill="#1f2933"/><rect width="668" height="10" x="72" y="824" fill="#1f2933" rx="5"/><circle cx="60" cy="848" r="4" fill="#1f2933"/><rect width="656" height="10" x="72" y="842" fill="#1f2933" rx="5"/><circle cx="60" cy="866" r="4" fill="#1f2933"/><rect width="640" height="10" x="72" y="860" fill="#1f2933" rx="5"/><circle cx="44" cy="926" r="10" fill="#198e89"/><rect width="110" height="16" x="56" y="924" fill="#198e89" rx="8"/><line x1="176" x2="764" y1="932" y2="932" stroke="#c2d4dc" stroke-width="2"/><rect width="728" height="90" x="36" y="950" fill="#f8fafc" stroke="#d7e1e7" rx="14"/><circle cx="60" cy="982" r="4" fill="#1f2933"/><rect width="670" height="10" x="72" y="976" fill="#1f2933" rx="5"/><circle cx="60" cy="1000" r="4" fill="#1f2933"/><rect width="658" height="10" x="72" y="994" fill="#1f2933" rx="5"/></svg>