<svg xmlns="http://www.w3.org/2000/svg" width="800" height="1120" aria-label="Red gradient template preview" role="img" viewBox="0 0 800 1120"><defs><linearGradient id="heroGradient" x1="0%" x2="100%" y1="0%" y2="0%"><stop offset="0%" stop-color="#be124f"/><stop offset="100%" stop-color="#d86b93"/></linearGradient><linearGradient id="sectionFill" x1="0%" x2="100%" y1="0%" y2="0%"><stop offset="0%" stop-color="#f5dbe3" stop-opacity=".95"/><stop offset="100%" stop-color="#fff5f8" stop-opacity=".95"/></linearGradient></defs><rect width="800" height="1120" fill="#fff"/><path fill="#fff9fb" d="M0 0H800V224H0Z"/><path fill="none" stroke="#d7d7d7" stroke-linecap="round" stroke-width="6" d="M0 18C72 8 126 32 182 72C138 68 92 84 48 132C34 104 18 68 0 18Z" opacity=".55"/><path fill="none" stroke="#d7d7d7" stroke-linecap="round" stroke-width="6" d="M0 56C66 40 116 62 170 102C130 100 86 114 42 156C26 126 12 92 0 56Z" opacity=".42"/><rect width="112" height="142" x="36" y="40" fill="#fff" stroke="#e8d3da" rx="10"/><rect width="88" height="116" x="48" y="54" fill="#ecd3dc" rx="6"/><path fill="url(#heroGradient)" d="M186 0H800V224H186C176 224 168 216 168 206V18C168 8 176 0 186 0Z"/><path fill="none" stroke="#f4bfd0" stroke-linecap="round" stroke-width="4" d="M284 24C418 4 560 20 756 64" opacity=".42"/><path fill="none" stroke="#f4bfd0" stroke-linecap="round" stroke-width="4" d="M274 48C432 22 584 44 780 96" opacity=".28"/><rect width="188" height="28" x="214" y="50" fill="#3d101b" opacity=".88" rx="8"/><rect width="260" height="16" x="214" y="102" fill="#3d101b" opacity=".82" rx="8"/><rect width="120" height="16" x="214" y="132" fill="#3d101b" opacity=".72" rx="8"/><path fill="none" stroke="#ecd9df" stroke-width="2.5" d="M0 250C134 228 274 248 430 284C596 322 694 320 800 276" opacity=".55"/><path fill="none" stroke="#ecd9df" stroke-width="2.5" d="M0 284C138 264 278 286 428 320C590 356 694 354 800 314" opacity=".4"/><rect width="736" height="28" x="32" y="300" fill="url(#sectionFill)" rx="3"/><rect width="6" height="28" x="32" y="300" fill="#c11b4c"/><rect width="126" height="12" x="52" y="308" fill="#c11b4c" rx="6"/><rect width="736" height="12" x="32" y="346" fill="#d7c7cc" rx="6"/><rect width="710" height="12" x="32" y="368" fill="#d7c7cc" rx="6"/><rect width="736" height="28" x="32" y="416" fill="url(#sectionFill)" rx="3"/><rect width="6" height="28" x="32" y="416" fill="#c11b4c"/><rect width="110" height="12" x="52" y="424" fill="#c11b4c" rx="6"/><rect width="156" height="14" x="32" y="462" fill="#3d101b" opacity=".86" rx="7"/><rect width="156" height="12" x="612" y="462" fill="#5d4d51" opacity=".7" rx="6"/><rect width="196" height="12" x="32" y="488" fill="#8d7a80" opacity=".8" rx="6"/><rect width="736" height="10" x="32" y="514" fill="#d7c7cc" rx="5"/><rect width="722" height="10" x="32" y="534" fill="#d7c7cc" rx="5"/><rect width="686" height="10" x="32" y="554" fill="#d7c7cc" rx="5"/><rect width="736" height="28" x="32" y="604" fill="url(#sectionFill)" rx="3"/><rect width="6" height="28" x="32" y="604" fill="#c11b4c"/><rect width="110" height="12" x="52" y="612" fill="#c11b4c" rx="6"/><rect width="184" height="14" x="32" y="650" fill="#3d101b" opacity=".86" rx="7"/><rect width="146" height="12" x="622" y="650" fill="#5d4d51" opacity=".7" rx="6"/><rect width="150" height="12" x="32" y="676" fill="#8d7a80" opacity=".8" rx="6"/><rect width="736" height="10" x="32" y="702" fill="#d7c7cc" rx="5"/><rect width="728" height="10" x="32" y="722" fill="#d7c7cc" rx="5"/><rect width="676" height="10" x="32" y="742" fill="#d7c7cc" rx="5"/><rect width="736" height="28" x="32" y="792" fill="url(#sectionFill)" rx="3"/><rect width="6" height="28" x="32" y="792" fill="#c11b4c"/><rect width="96" height="12" x="52" y="800" fill="#c11b4c" rx="6"/><rect width="214" height="14" x="32" y="838" fill="#3d101b" opacity=".86" rx="7"/><rect width="126" height="12" x="642" y="838" fill="#5d4d51" opacity=".7" rx="6"/><rect width="176" height="12" x="32" y="864" fill="#8d7a80" opacity=".8" rx="6"/><rect width="736" height="10" x="32" y="890" fill="#d7c7cc" rx="5"/><rect width="694" height="10" x="32" y="910" fill="#d7c7cc" rx="5"/><rect width="736" height="28" x="32" y="960" fill="url(#sectionFill)" rx="3"/><rect width="6" height="28" x="32" y="960" fill="#c11b4c"/><rect width="74" height="12" x="52" y="968" fill="#c11b4c" rx="6"/><rect width="736" height="10" x="32" y="1006" fill="#d7c7cc" rx="5"/><rect width="710" height="10" x="32" y="1026" fill="#d7c7cc" rx="5"/></svg>