<svg xmlns="http://www.w3.org/2000/svg" width="800" height="1120" aria-label="Workplace general template preview" role="img" viewBox="0 0 800 1120"><rect width="800" height="1120" fill="#fff"/><rect width="752" height="1072" x="24" y="24" fill="#f7faff" stroke="#d0dbec" rx="20"/><path fill="#467be8" d="M24 24h752v120c-120 30-632 30-752 0z"/><circle cx="400" cy="176" r="58" fill="#fff"/><circle cx="400" cy="176" r="44" fill="#c6d7f6"/><rect width="200" height="28" x="300" y="252" fill="#22427a" rx="10"/><rect width="328" height="12" x="236" y="294" fill="#5f708f" rx="6"/><rect width="272" height="12" x="264" y="324" fill="#7f90ad" rx="6"/><rect width="424" height="12" x="188" y="354" fill="#7f90ad" rx="6"/><rect width="688" height="18" x="56" y="430" fill="#5a88df" rx="9"/><rect width="688" height="10" x="56" y="468" fill="#c2d2ec" rx="5"/><rect width="688" height="10" x="56" y="500" fill="#c2d2ec" rx="5"/><rect width="688" height="18" x="56" y="552" fill="#5a88df" rx="9"/><rect width="688" height="10" x="56" y="590" fill="#c2d2ec" rx="5"/><rect width="688" height="10" x="56" y="622" fill="#c2d2ec" rx="5"/><text x="400" y="1038" fill="#506993" font-family="Segoe UI, Arial, sans-serif" font-size="32" text-anchor="middle">WORKPLACE</text></svg>